<svg xmlns="http://www.w3.org/2000/svg" xmlns:xlink="http://www.w3.org/1999/xlink" width="476" height="524" viewBox="0 0 476 524">
    <defs>
        <path id="a" d="M0 .31h432.393v451.303H0z"/>
        <path id="c" d="M.638.172h109.31v7.462H.637z"/>
    </defs>
    <g fill="none" fill-rule="evenodd">
        <path fill="#F0FFFB" d="M459.075 235.818c0 118.47-96.329 214.51-215.156 214.51-118.828 0-215.157-96.04-215.157-214.51 0-45.335 14.107-87.386 38.181-122.027 38.838-55.884 103.62-92.485 176.976-92.485 118.827 0 215.156 96.04 215.156 214.512"/>
        <g transform="translate(0 .007)">
            <mask id="b" fill="#fff">
                <use xlink:href="#a"/>
            </mask>
            <path fill="#F0FFFB" d="M432.393 225.965c-.083-28.745-5.4-57.476-15.868-84.244-10.435-26.77-25.98-51.556-45.668-72.506-19.672-20.954-43.57-37.952-69.886-49.489-26.307-11.564-55.043-17.464-83.734-17.329-28.692.124-57.315 6.281-83.418 18.038C107.683 32.14 84.154 49.34 64.7 70.223c-19.482 20.879-34.825 45.543-45.086 72.14-10.296 26.598-15.45 55.107-15.45 83.602-.018 28.497 5.15 57.007 15.444 83.604 10.262 26.6 25.605 51.264 45.089 72.143 19.442 20.897 42.983 38.086 69.119 49.796 26.103 11.757 54.728 17.913 83.422 18.035 28.692.136 57.43-5.765 83.737-17.331 26.315-11.54 50.217-28.534 69.884-49.495 19.69-20.95 35.233-45.738 45.669-72.507 10.468-26.769 15.784-55.5 15.866-84.245m0 0c.019 28.746-5.197 57.513-15.585 84.353-10.355 26.842-25.84 51.734-45.507 72.81-19.634 21.084-43.398 38.447-69.798 50.27-26.367 11.874-55.286 18.093-84.266 18.215-28.979.135-58.01-5.828-84.58-17.51-26.58-11.654-50.703-28.823-70.563-49.97-19.872-21.146-35.557-46.161-46.087-73.174C5.444 283.949.082 254.959 0 225.965c.067-28.994 5.44-57.984 16-84.995 10.53-27.014 26.216-52.028 46.09-73.176 19.848-21.16 43.984-38.32 70.562-49.976C159.224 6.135 188.257.173 217.237.308c28.982.123 57.902 6.343 84.269 18.217 26.4 11.827 50.167 29.187 69.796 50.277 19.669 21.076 35.153 45.97 45.507 72.81 10.388 26.84 15.603 55.608 15.584 84.353" mask="url(#b)"/>
        </g>
        <path fill="#F0FFFB" d="M468.84 234.682c-.145-27.867-4.902-55.759-14.63-81.87-9.737-26.085-24.174-50.408-42.634-71.172-18.455-20.732-40.793-38.054-65.784-50.055a196.8 196.8 0 0 0-19.161-7.989 191.533 191.533 0 0 0-60.962-11.36 191.602 191.602 0 0 0-41.285 3.549c-13.581 2.657-26.84 6.859-39.553 12.309-25.434 10.933-48.444 27.318-67.498 47.4-19.07 20.092-34.255 43.816-44.821 69.434-10.555 25.63-16.553 53.139-17.704 80.886-1.19 27.726 2.295 55.78 11.238 82.142 8.919 26.327 23.122 50.974 42.034 71.449a199.6 199.6 0 0 0 31.27 27.573c11.368 8.04 23.595 14.85 36.368 20.36 25.56 11.032 53.33 16.671 81.094 17.016 13.886.248 27.795-.794 41.464-3.182 13.676-2.372 27.08-6.159 40.038-11.087 25.914-9.902 49.7-25.246 69.52-44.687 19.82-19.456 35.444-43.165 45.75-69.028 5.193-12.92 8.974-26.4 11.515-40.098 2.519-13.708 3.697-27.652 3.74-41.59m.412 0c.013 27.913-4.709 55.903-14.65 82.082-9.896 26.175-25.21 50.388-44.915 70.471-19.631 20.177-43.83 35.85-70.074 46.176-26.281 10.344-54.7 14.921-82.867 14.308-28.18-.734-56.246-6.846-81.915-18.373a205.265 205.265 0 0 1-36.425-21.056 201.12 201.12 0 0 1-31.346-27.96c-18.814-20.79-33.343-45.392-42.409-71.9-9.125-26.492-13.094-54.689-12.2-82.701.8-28.018 6.451-55.971 16.987-82.045a231.722 231.722 0 0 1 19.199-37.512 224.007 224.007 0 0 1 25.867-33.336C133.8 52.3 157.178 35.465 183.117 24.163c25.917-11.335 54.37-16.837 82.648-16.132 28.274.674 56.44 7.477 81.726 20.093 25.328 12.523 47.883 30.371 66.089 51.78 18.255 21.384 32.36 46.15 41.682 72.528 9.37 26.368 14.089 54.32 13.989 82.25"/>
        <path fill="#C6EFE1" d="M113.157 64.3a1.66 1.66 0 0 1 .935-2.159 1.668 1.668 0 0 1 2.164.932 1.66 1.66 0 0 1-.934 2.157 1.67 1.67 0 0 1-2.165-.93M392.36 153.288a1.662 1.662 0 0 1 .934-2.159 1.669 1.669 0 0 1 2.164.932 1.658 1.658 0 0 1-.933 2.157 1.667 1.667 0 0 1-2.165-.93M79.123 153.288a1.66 1.66 0 0 1 .935-2.159 1.669 1.669 0 0 1 2.164.932 1.667 1.667 0 0 1-3.098 1.227M346.351 62.436a1.661 1.661 0 0 1 .935-2.159 1.669 1.669 0 0 1 2.163.932 1.658 1.658 0 0 1-.933 2.157 1.67 1.67 0 0 1-2.165-.93M88.212 289.165c-.34-.853.078-1.82.933-2.16a1.67 1.67 0 0 1 2.166.932c.34.853-.079 1.82-.934 2.159a1.67 1.67 0 0 1-2.165-.93M424.064 261.716a1.66 1.66 0 0 1 .933-2.159 1.668 1.668 0 0 1 2.164.932 1.66 1.66 0 0 1-.932 2.159 1.668 1.668 0 0 1-2.165-.932M205.55 54.284a.61.61 0 0 1-.61-.61v-6.66a.61.61 0 0 1 .61-.61.61.61 0 0 1 .613.61v6.66a.61.61 0 0 1-.612.61"/>
        <path fill="#C6EFE1" d="M208.892 50.953h-6.682a.61.61 0 1 1 0-1.22h6.682a.61.61 0 1 1 0 1.22M432.393 209.44a.61.61 0 0 1-.611-.61v-6.662a.61.61 0 0 1 1.223 0v6.662a.61.61 0 0 1-.612.61"/>
        <path fill="#C6EFE1" d="M435.735 206.109h-6.683a.61.61 0 1 1 0-1.22h6.683a.61.61 0 1 1 0 1.22M397.372 329.978a.61.61 0 0 1-.611-.61v-6.662a.61.61 0 0 1 1.223 0v6.662a.61.61 0 0 1-.612.61"/>
        <path fill="#C6EFE1" d="M400.713 326.647h-6.68a.61.61 0 1 1 0-1.22h6.68a.61.61 0 1 1 0 1.22M37.839 220.713a.61.61 0 0 1-.612-.61v-6.661a.61.61 0 0 1 1.223 0v6.661a.61.61 0 0 1-.611.61"/>
        <path fill="#C6EFE1" d="M41.18 217.382h-6.682a.61.61 0 1 1 0-1.22h6.681a.61.61 0 1 1 0 1.22"/>
        <path fill="#B9EBE0" d="M368.378 455.675c0 3.105-60.509 5.622-135.147 5.622-74.641 0-135.148-2.517-135.148-5.622s60.507-5.621 135.148-5.621c74.638 0 135.147 2.516 135.147 5.62"/>
        <path fill="#D5FEF0" d="M366.088 447.451c.068.094.308-7.83 12.221-14.92 12.136-7.56 37.372-5.061 40.982-12.86 3.786-8.353-12.182-7.235-18.724-13.889-6.597-6.802-8.758-9.89.877-11.282 9.585-1.238 15.362-1.722 15.757-9.574.403-7.944 15.825-3.265 23.969-8.644 8.389-5.368 4.394-13.391-10.917-13.778-15.065-.01-15.478-2.507-11.017-4.584 4.385-2.061 17.75-5.309 12.399-9.677-5.501-4.424-14.049-1.228-9.333-6.079 4.663-4.896 15.368-8.035 10.559-13.898-4.792-5.93-18.002-6.111-26.282 8.16-8.117 14.237-10.784 18.185-18.112 19.394-7.146 1.283-13.431-6.697-22.297-4.022-8.803 2.78-7.605 11.109-2.749 16.858 4.986 5.768 13.204 17.124 7.6 21.698-5.402 4.626-11.256-2.946-18.706-4.657-8.269-1.897-18.142 4.711-10.911 16.529 7.544 11.671 19.618 21.2 18.487 47.181a166.5 166.5 0 0 1 6.197-1.956"/>
        <path fill="#BDE7D9" d="M348.176 392.774a.454.454 0 0 1 .635-.012c.156.15 15.29 14.827 20.631 32.506.562-1.63 1.128-3.235 1.696-4.82.007-.019.01-.036.02-.056 5.48-15.253 11.227-28.324 16.852-39.412-1.16-1.561-10.31-13.682-22.688-24.615a.445.445 0 0 1-.039-.63.45.45 0 0 1 .634-.038c11.785 10.411 20.648 21.875 22.547 24.398a294.122 294.122 0 0 1 2.524-4.827.434.434 0 0 1 .203-.375c3.972-7.39 7.841-13.794 11.465-19.289.012-.141.066-.276.2-.352.016-.009.033-.016.05-.026 12.727-19.218 22.35-27.19 22.54-27.344a.448.448 0 1 1 .562.694c-.182.149-9.27 7.68-21.449 25.77 11.58-5.85 23.854-5.02 23.982-5.01.27.023.431.232.413.477a.446.446 0 0 1-.48.413c-.132-.01-13.217-.886-24.965 5.691-3.513 5.318-7.26 11.496-11.114 18.611 21.352-5.964 43.956-4.18 44.186-4.161.279.022.43.238.408.483a.447.447 0 0 1-.483.407c-.23-.02-23.262-1.84-44.698 4.364-6.443 12.025-13.152 26.664-19.512 44.257 15.041-4.98 38.291-3.786 38.528-3.774a.444.444 0 0 1 .422.471.448.448 0 0 1-.472.42c-.238-.011-24.027-1.234-38.866 3.955-3.056 8.53-6.027 17.74-8.845 27.682a.45.45 0 0 1-.51.318l-.043-.01a.446.446 0 0 1-.308-.551 434.287 434.287 0 0 1 6.739-21.646c-4.923-17.985-20.593-33.185-20.752-33.336a.449.449 0 0 1-.013-.633"/>
        <path fill="#D5FEF0" d="M121.026 342.326c1.923-63.316-28.64-126.016-79.761-163.63l1.011-1.367c51.566 37.941 82.394 101.184 80.452 165.05l-1.702-.053z"/>
        <path fill="#D5FEF0" d="M52.247 186.334c-3.976-7.919-10.906-14.32-19.127-17.67-2.015-.821-4.383-1.446-6.299-.413-.526.284-1.005.71-1.2 1.273-.313.91.181 1.89.737 2.675 2.941 4.163 7.812 6.506 12.62 8.226 4.808 1.718 8.18 3.643 13.27 5.909M65.223 198.866c-6.801-5.696-15.708-8.833-24.589-8.657-2.176.042-4.598.406-5.944 2.11-.371.47-.643 1.05-.596 1.645.073.958.917 1.662 1.74 2.163 4.356 2.659 9.76 2.885 14.857 2.561 5.098-.323 8.957.11 14.532.178M80.673 216.459c-6.05-6.483-14.507-10.681-23.342-11.59-2.165-.223-4.614-.157-6.16 1.37-.425.42-.766.964-.793 1.56-.044.96.707 1.76 1.462 2.358 3.997 3.17 9.333 4.053 14.431 4.354 5.1.3 8.879 1.201 14.402 1.948M93.36 235.493c-6.05-6.482-14.506-10.68-23.341-11.59-2.166-.222-4.614-.156-6.16 1.372-.425.42-.766.963-.793 1.558-.044.961.707 1.761 1.462 2.36 3.997 3.17 9.333 4.052 14.432 4.353 5.1.301 8.877 1.201 14.4 1.947M106.773 262.701c-5.344-7.072-13.318-12.121-22.012-13.939-2.13-.445-4.572-.632-6.269.727-.466.375-.861.88-.95 1.47-.143.95.52 1.824 1.208 2.496 3.647 3.566 8.861 4.996 13.902 5.821 5.041.826 8.706 2.111 14.121 3.425M114.566 283.382c-4.638-6.813-12.062-12.246-20.493-14.996-2.066-.676-4.465-1.17-6.266-.232-.496.258-.934.637-1.076 1.132-.228.799.348 1.64.967 2.314 3.28 3.564 8.307 5.506 13.216 6.905 4.91 1.4 8.416 3.007 13.652 4.877M70.807 204.931c3.5-8.407 3.9-18.266 1.104-27.212-.685-2.193-1.754-4.549-3.802-5.457-.563-.25-1.205-.37-1.766-.165-.906.332-1.336 1.373-1.578 2.34-1.285 5.123.096 10.653 1.916 15.73 1.82 5.076 2.545 9.102 4.126 14.764M82.34 218.924c5.41-7.332 8.158-16.81 7.586-26.163-.141-2.293-.614-4.834-2.386-6.205-.486-.376-1.081-.645-1.677-.58-.957.107-1.625 1.016-2.091 1.897-2.474 4.669-2.458 10.369-1.905 15.731.552 5.364.291 9.445.472 15.32M94.963 238.753c6.773-6.105 11.367-14.843 12.683-24.122.322-2.274.369-4.86-1.092-6.554-.401-.467-.93-.849-1.526-.903-.96-.087-1.797.67-2.431 1.441-3.36 4.08-4.488 9.669-5.023 15.034-.535 5.365-1.61 9.311-2.611 15.104"/>
        <path fill="#D2D2FF" d="M108.623 265.558c5.246-7.45 7.782-16.987 7.001-26.325-.192-2.289-.721-4.82-2.522-6.15-.495-.366-1.096-.622-1.69-.543-.955.128-1.603 1.051-2.05 1.943-2.368 4.722-2.224 10.42-1.553 15.77.672 5.35.502 9.435.814 15.305M115.214 286.193c8.049-4.298 14.62-11.675 18.138-20.365.863-2.13 1.533-4.628.525-6.623-.278-.55-.697-1.048-1.264-1.243-.91-.316-1.905.218-2.707.815-4.247 3.152-6.692 8.305-8.507 13.383-1.817 5.078-3.813 8.65-6.185 14.033"/>
        <path fill="#D5FEF0" d="M409.609 169.187c.57.181 1.122.51 1.418 1.029.477.834.175 1.889-.224 2.763-2.111 4.637-6.458 7.846-10.861 10.427-3.519 2.065-6.111 4.086-9.346 6.435a190.633 190.633 0 0 0-10.427 13.75c5.404-5.337 12.473-8.997 19.976-10.264 2.146-.363 4.595-.455 6.235.97.453.39.827.911.893 1.504.106.955-.59 1.803-1.304 2.45-3.784 3.421-9.05 4.647-14.117 5.277-4.83.6-8.427 1.665-13.48 2.719a195.36 195.36 0 0 0-9.767 16.363c4.649-5.535 10.935-9.708 17.878-11.777 2.086-.62 4.503-1.011 6.308.202.496.334.932.805 1.07 1.385.222.935-.365 1.862-.995 2.59-3.335 3.856-8.411 5.716-13.364 6.959-4.63 1.161-8.027 2.624-12.767 4.247a199.417 199.417 0 0 0-8.57 19.413c4.75-6.51 11.673-11.43 19.413-13.736 2.085-.62 4.502-1.012 6.308.203.495.334.932.805 1.07 1.384.222.935-.366 1.862-.996 2.589-3.334 3.857-8.412 5.716-13.363 6.96-4.732 1.187-8.179 2.688-13.084 4.355a201.241 201.241 0 0 0-8.106 28.142c4.017-7.336 10.592-13.259 18.334-16.469 2.01-.834 4.374-1.472 6.295-.451.528.28 1.012.704 1.21 1.267.318.907-.17 1.89-.72 2.678-2.917 4.18-7.773 6.554-12.57 8.302-4.652 1.694-7.954 3.574-12.775 5.78-5.337 26.05-5.499 53.154.048 79.332l.38 1.757-1.663.367c-9.664-43.531-3.596-89.731 15.756-129.6-6.222-6.143-10.371-14.59-11.507-23.492-.29-2.278-.301-4.864 1.182-6.538.409-.461.944-.836 1.54-.882.96-.073 1.788.695 2.41 1.474 3.303 4.127 4.353 9.73 4.814 15.102.408 4.771 1.259 8.43 2.09 13.257a198.214 198.214 0 0 1 8.3-15.15c-4.5-7.416-6.47-16.54-5.45-25.389.263-2.283.873-4.796 2.715-6.068.506-.351 1.114-.588 1.704-.49.951.157 1.57 1.1 1.988 2.004 2.22 4.795 1.898 10.485 1.059 15.812-.707 4.488-.789 8.098-1.094 12.629a193.259 193.259 0 0 1 15.287-21.35c2.718-7.586 7.976-14.258 14.758-18.645 1.826-1.182 4.036-2.234 6.111-1.576z"/>
        <path fill="#D2D2FF" d="M355.847 251.12c-7.796-4.739-13.944-12.47-16.972-21.342-.74-2.175-1.27-4.705-.152-6.642.307-.533.754-1.007 1.33-1.17.928-.265 1.892.324 2.659.963 4.062 3.385 6.216 8.665 7.745 13.836 1.53 5.172 3.324 8.85 5.39 14.354M347.44 279.994c-6.549-6.345-10.824-15.243-11.801-24.563-.241-2.284-.195-4.87 1.327-6.51.418-.452.961-.814 1.558-.847.963-.053 1.772.734 2.377 1.527 3.21 4.199 4.135 9.824 4.475 15.205.341 5.38 1.273 9.363 2.063 15.188M344.822 301.492c-8.712-2.727-16.547-8.754-21.63-16.636-1.245-1.933-2.369-4.263-1.752-6.41.169-.592.49-1.159 1.008-1.456.836-.478 1.913-.14 2.813.296 4.761 2.31 8.127 6.917 10.861 11.57 2.733 4.65 5.363 7.788 8.7 12.636"/>
        <path fill="#B9EBE0" d="M320.729 403.043c7.75-7.226 18.697-10.912 29.253-9.848 7.152.72 14.948 4.528 16.521 11.52.75 3.33.486 7.746 3.648 9.054 3.094 1.28 6.082-1.898 9.258-2.959 5.286-1.768 11.32 4.258 9.536 9.526-.811 2.395-2.845 4.48-2.675 7.004.23 3.435 4.488 5.225 7.9 4.692 3.41-.534 6.423-2.52 9.768-3.369 3.347-.848 7.68.003 8.856 3.24 1.052 2.901-.764 6.799 1.52 8.88.98.89 2.397 1.075 3.717 1.2 28.974 2.742 60.882 7.924 57.64 13.057-.887 1.402-3.15.956-4.814.93-61.67-.963-117.116-.978-179.335-.946"/>
        <path fill="#D5FEF0" d="M112.776 454.311c-.068.094-.308-7.83-12.221-14.919-12.136-7.56-37.371-5.061-40.982-12.859-3.785-8.354 12.182-7.237 18.724-13.89 6.598-6.802 8.758-9.892-.877-11.282-9.586-1.239-15.36-1.722-15.757-9.575-.404-7.943-15.824-3.265-23.968-8.644-8.39-5.367-4.394-13.391 10.916-13.778 15.064-.008 15.478-2.506 11.017-4.584-4.386-2.061-17.75-5.309-12.398-9.676 5.5-4.423 14.048-1.228 9.332-6.08-4.662-4.896-15.367-8.034-10.559-13.897 4.792-5.93 18.001-6.112 26.282 8.16 8.117 14.237 10.784 18.184 18.112 19.394 7.146 1.283 13.431-6.697 22.297-4.023 8.803 2.78 7.605 11.11 2.749 16.86-4.986 5.768-13.204 17.123-7.6 21.698 5.402 4.624 11.256-2.948 18.706-4.658 8.269-1.897 18.141 4.71 10.912 16.529-7.545 11.671-18.689 15.515-17.556 41.496-2.055-.693-5.052 4.34-7.129 3.728"/>
        <path fill="#BDE7D9" d="M130.687 399.634a.454.454 0 0 0-.634-.01c-.156.148-15.289 14.827-20.63 32.506a376.397 376.397 0 0 0-1.698-4.82c-.007-.02-.01-.038-.02-.056-5.478-15.255-11.226-28.325-16.85-39.414 1.16-1.56 10.309-13.68 22.687-24.615a.445.445 0 0 0 .04-.63.451.451 0 0 0-.635-.038c-11.784 10.411-20.648 21.875-22.546 24.398a280.124 280.124 0 0 0-2.526-4.825.433.433 0 0 0-.203-.377c-3.972-7.39-7.841-13.794-11.463-19.288-.012-.141-.066-.275-.2-.352-.017-.009-.034-.017-.05-.027-12.729-19.218-22.35-27.19-22.54-27.343a.448.448 0 1 0-.563.694c.182.148 9.27 7.68 21.45 25.768-11.579-5.847-23.854-5.018-23.983-5.008a.435.435 0 0 0-.414.477c.02.247.234.431.48.413.132-.011 13.218-.887 24.966 5.69 3.512 5.319 7.261 11.496 11.114 18.611-21.353-5.962-43.957-4.18-44.187-4.16-.277.022-.428.238-.407.482.02.246.236.43.483.407.23-.018 23.261-1.839 44.698 4.364 6.443 12.025 13.153 26.666 19.512 44.258-15.04-4.98-38.29-3.787-38.528-3.773a.447.447 0 0 0 .05.89c.239-.01 24.026-1.235 38.866 3.955 3.056 8.53 5.48 15.823 8.297 25.764.064.223.376.828.6.789.014-.004.06-.182.077-.186.236-.068.603.187.536-.051-2.166-7.64-4.226-13.72-6.542-20.524 4.92-17.985 20.593-33.185 20.752-33.336a.447.447 0 0 0 .01-.633"/>
        <path fill="#B9EBE0" d="M161.554 403.043c-7.75-7.226-18.697-10.912-29.254-9.848-7.15.72-14.947 4.528-16.52 11.52-.75 3.33-.486 7.746-3.647 9.054-3.095 1.28-6.083-1.898-9.259-2.959-5.286-1.768-11.319 4.258-9.535 9.526.81 2.395 2.844 4.48 2.674 7.004-.23 3.435-4.488 5.225-7.9 4.692-3.41-.534-6.423-2.52-9.769-3.369-3.345-.848-7.68.003-8.855 3.24-1.053 2.901.765 6.799-1.521 8.88-.979.89-2.397 1.075-3.715 1.2-28.975 2.742-60.883 7.924-57.642 13.057.887 1.402 3.153.956 4.815.93 61.67-.963 117.115-.978 179.335-.946"/>
        <path fill="#00C6AD" d="M352.56 455.613H113.9c-4.69 0-8.49-3.79-8.49-8.464V103.712c0-4.675 3.8-8.465 8.49-8.465h238.66c4.69 0 8.49 3.79 8.49 8.465v343.437c0 4.675-3.8 8.464-8.49 8.464"/>
        <path fill="#B2FFE8" d="M341.333 441.48H125.127a4.894 4.894 0 0 1-4.9-4.887V114.267a4.894 4.894 0 0 1 4.9-4.886h216.206c2.707 0 4.9 2.187 4.9 4.886v322.326a4.893 4.893 0 0 1-4.9 4.886"/>
        <path fill="#FFF" d="M331.474 431.333H134.987c-3.353 0-6.07-2.71-6.07-6.05V125.577c0-3.341 2.717-6.05 6.07-6.05h196.487c3.352 0 6.068 2.709 6.068 6.05v299.706c0 3.34-2.716 6.05-6.068 6.05"/>
        <path fill="#C5C5C5" d="M235.803 84.767c-4.203 0-7.608-3.397-7.608-7.587 0-4.19 3.405-7.586 7.608-7.586 4.203 0 7.61 3.397 7.61 7.586 0 4.19-3.407 7.587-7.61 7.587m0-21.283c-7.49 0-13.562 6.055-13.562 13.523v17.33h27.126v-17.33c0-7.468-6.072-13.523-13.564-13.523"/>
        <path fill="#C5C5C5" d="M226.384 92.607v-17.33c0-4.704 2.048-8.842 5.702-11.266-5.681 1.614-9.845 6.814-9.845 12.995v17.331h27.125v-1.73h-22.982zm17.029-15.427c0-4.189-3.407-7.587-7.61-7.587-.39 0-.767.059-1.141.116 1.141-.44 1.199-.738 3.086-.738 4.203 0 7.61 3.397 7.61 7.587 0 3.8-1.945 5.858-4.88 6.61 1.63-1.392 2.935-3.68 2.935-5.988z"/>
        <path fill="#C5C5C5" d="M315.452 101.212v13.545h-164.45v-13.545c0-5.255 4.28-9.508 9.537-9.508h145.376c5.272 0 9.537 4.253 9.537 9.508"/>
        <path fill="#C5C5C5" d="M315.452 111.37v3.386h-164.45v-13.544c0-5.256 4.28-9.508 9.537-9.508h1.319c-2.527 2.41-4.498 6.095-4.498 9.86v9.807h158.092z"/>
        <g fill="#CBEFE5">
            <path d="M220.662 154.789h-33.889c-1.17 0-2.12-.947-2.12-2.114 0-1.168.95-2.115 2.12-2.115h33.889c1.172 0 2.12.947 2.12 2.115a2.116 2.116 0 0 1-2.12 2.114M322.479 165.56H296.71a2.118 2.118 0 0 1-2.12-2.114c0-1.168.95-2.114 2.12-2.114h25.768c1.17 0 2.12.946 2.12 2.114 0 1.167-.95 2.114-2.12 2.114M285.545 165.56h-98.771a2.116 2.116 0 0 1-2.12-2.114c0-1.168.948-2.114 2.12-2.114h98.771c1.17 0 2.12.946 2.12 2.114 0 1.167-.95 2.114-2.12 2.114M322.479 176.332H186.774a2.117 2.117 0 0 1-2.121-2.114c0-1.168.95-2.115 2.121-2.115H322.48c1.17 0 2.12.947 2.12 2.115 0 1.167-.95 2.114-2.12 2.114M322.479 187.104h-43.135c-1.17 0-2.12-.947-2.12-2.114 0-1.168.95-2.115 2.12-2.115h43.135c1.17 0 2.12.947 2.12 2.115 0 1.167-.95 2.114-2.12 2.114M268.607 187.104h-81.833a2.117 2.117 0 0 1-2.121-2.114c0-1.168.95-2.115 2.121-2.115h81.833c1.171 0 2.12.947 2.12 2.115 0 1.167-.949 2.114-2.12 2.114M322.479 154.789h-90.697c-1.17 0-2.12-.947-2.12-2.114 0-1.168.95-2.115 2.12-2.115h90.697c1.17 0 2.12.947 2.12 2.115 0 1.167-.95 2.114-2.12 2.114M220.662 232.222h-33.889c-1.17 0-2.12-.946-2.12-2.113 0-1.168.95-2.115 2.12-2.115h33.889c1.172 0 2.12.947 2.12 2.115a2.116 2.116 0 0 1-2.12 2.113M322.479 242.994H296.71a2.118 2.118 0 0 1-2.12-2.114c0-1.168.95-2.115 2.12-2.115h25.768c1.17 0 2.12.947 2.12 2.115 0 1.167-.95 2.114-2.12 2.114M285.545 242.994h-98.771a2.116 2.116 0 0 1-2.12-2.114c0-1.168.948-2.115 2.12-2.115h98.771c1.17 0 2.12.947 2.12 2.115 0 1.167-.95 2.114-2.12 2.114M322.479 253.766H186.774a2.117 2.117 0 0 1-2.121-2.114c0-1.168.95-2.115 2.121-2.115H322.48c1.17 0 2.12.947 2.12 2.115 0 1.167-.95 2.114-2.12 2.114M322.479 264.537h-43.135c-1.17 0-2.12-.945-2.12-2.114 0-1.167.95-2.113 2.12-2.113h43.135c1.17 0 2.12.946 2.12 2.113 0 1.169-.95 2.114-2.12 2.114M268.607 264.537h-81.833a2.116 2.116 0 0 1-2.121-2.114c0-1.167.95-2.113 2.121-2.113h81.833c1.171 0 2.12.946 2.12 2.113 0 1.169-.949 2.114-2.12 2.114M322.479 232.222h-90.697c-1.17 0-2.12-.946-2.12-2.113 0-1.168.95-2.115 2.12-2.115h90.697c1.17 0 2.12.947 2.12 2.115 0 1.167-.95 2.113-2.12 2.113M220.662 306.947h-33.889c-1.17 0-2.12-.947-2.12-2.114 0-1.167.95-2.114 2.12-2.114h33.889c1.172 0 2.12.947 2.12 2.114a2.116 2.116 0 0 1-2.12 2.114M322.479 317.718H296.71a2.118 2.118 0 0 1-2.12-2.114c0-1.167.95-2.114 2.12-2.114h25.768c1.17 0 2.12.947 2.12 2.114 0 1.168-.95 2.114-2.12 2.114M285.545 317.718h-98.771a2.116 2.116 0 0 1-2.12-2.114c0-1.167.948-2.114 2.12-2.114h98.771c1.17 0 2.12.947 2.12 2.114 0 1.168-.95 2.114-2.12 2.114M322.479 328.49H186.774a2.117 2.117 0 0 1-2.121-2.113c0-1.167.95-2.115 2.121-2.115H322.48c1.17 0 2.12.948 2.12 2.115 0 1.167-.95 2.113-2.12 2.113M322.479 339.262h-43.135c-1.17 0-2.12-.947-2.12-2.114 0-1.167.95-2.115 2.12-2.115h43.135c1.17 0 2.12.948 2.12 2.115 0 1.167-.95 2.114-2.12 2.114M268.607 339.262h-81.833a2.117 2.117 0 0 1-2.121-2.114c0-1.167.95-2.115 2.121-2.115h81.833c1.171 0 2.12.948 2.12 2.115 0 1.167-.949 2.114-2.12 2.114M322.479 306.947h-90.697c-1.17 0-2.12-.947-2.12-2.114 0-1.167.95-2.114 2.12-2.114h90.697c1.17 0 2.12.947 2.12 2.114 0 1.167-.95 2.114-2.12 2.114M220.662 383.026h-33.889c-1.17 0-2.12-.947-2.12-2.114 0-1.167.95-2.114 2.12-2.114h33.889c1.172 0 2.12.947 2.12 2.114a2.116 2.116 0 0 1-2.12 2.114M322.479 393.797H296.71a2.118 2.118 0 0 1-2.12-2.113c0-1.168.95-2.115 2.12-2.115h25.768c1.17 0 2.12.947 2.12 2.115 0 1.167-.95 2.113-2.12 2.113M285.545 393.797h-98.771a2.116 2.116 0 0 1-2.12-2.113c0-1.168.948-2.115 2.12-2.115h98.771c1.17 0 2.12.947 2.12 2.115 0 1.167-.95 2.113-2.12 2.113M322.479 404.57H186.774a2.117 2.117 0 0 1-2.121-2.114c0-1.167.95-2.115 2.121-2.115H322.48c1.17 0 2.12.948 2.12 2.115 0 1.167-.95 2.113-2.12 2.113M322.479 415.34h-43.135c-1.17 0-2.12-.946-2.12-2.113s.95-2.114 2.12-2.114h43.135c1.17 0 2.12.947 2.12 2.114 0 1.167-.95 2.114-2.12 2.114M268.607 415.34h-81.833a2.117 2.117 0 0 1-2.121-2.113c0-1.167.95-2.114 2.121-2.114h81.833c1.171 0 2.12.947 2.12 2.114 0 1.167-.949 2.114-2.12 2.114M322.479 383.026h-90.697c-1.17 0-2.12-.947-2.12-2.114 0-1.167.95-2.114 2.12-2.114h90.697c1.17 0 2.12.947 2.12 2.114 0 1.167-.95 2.114-2.12 2.114"/>
        </g>
        <path stroke="#CBEFE5" stroke-width="1.111" d="M172.76 180.398h-25.925a2.567 2.567 0 0 1-2.57-2.564v-25.846a2.566 2.566 0 0 1 2.57-2.564h25.924a2.566 2.566 0 0 1 2.572 2.564v25.846a2.567 2.567 0 0 1-2.572 2.564zM172.76 257.58h-25.925a2.567 2.567 0 0 1-2.57-2.563v-25.848a2.567 2.567 0 0 1 2.57-2.563h25.924a2.567 2.567 0 0 1 2.572 2.563v25.848a2.567 2.567 0 0 1-2.572 2.563zM172.76 334.762h-25.925a2.566 2.566 0 0 1-2.57-2.563v-25.847a2.567 2.567 0 0 1 2.57-2.563h25.924a2.567 2.567 0 0 1 2.572 2.563V332.2a2.566 2.566 0 0 1-2.572 2.563zM172.76 411.945h-25.925a2.568 2.568 0 0 1-2.571-2.564v-25.847a2.567 2.567 0 0 1 2.57-2.563h25.926a2.567 2.567 0 0 1 2.571 2.563v25.847a2.568 2.568 0 0 1-2.57 2.564z"/>
        <path fill="#C5C5C5" d="M159.797 175.907c-.7 0-1.366-.31-1.815-.851l-11.711-14.1a2.345 2.345 0 0 1 .313-3.308 2.36 2.36 0 0 1 3.318.312l9.64 11.608 20.796-32.713a2.361 2.361 0 0 1 3.252-.727 2.345 2.345 0 0 1 .73 3.243l-22.533 35.445a2.358 2.358 0 0 1-1.99 1.091M159.797 252.447c-.7 0-1.366-.31-1.815-.851l-11.711-14.1a2.345 2.345 0 0 1 .313-3.308 2.36 2.36 0 0 1 3.318.312l9.64 11.608 20.796-32.713a2.362 2.362 0 0 1 3.252-.727 2.345 2.345 0 0 1 .73 3.243l-22.533 35.445a2.358 2.358 0 0 1-1.99 1.091M159.797 329.32c-.7 0-1.366-.31-1.815-.852l-11.711-14.1a2.345 2.345 0 0 1 .313-3.308 2.362 2.362 0 0 1 3.318.311l9.64 11.61 20.796-32.713a2.362 2.362 0 0 1 3.252-.727 2.345 2.345 0 0 1 .73 3.243l-22.533 35.443a2.355 2.355 0 0 1-1.99 1.092"/>
        <path fill="#00C6AD" d="M222.528 351.279c-3.643 3.902-6.213 28.907-6.307 29.835-.095.928-18.443 11.22-18.443 11.22l2.583 2.947s19.55-4.909 23.067-9.15c2.984-3.595 9.877-32.991 9.877-32.991s-4.732-8.336-10.777-1.861"/>
        <g transform="translate(195.718 515.886)">
            <mask id="d" fill="#fff">
                <use xlink:href="#c"/>
            </mask>
            <path fill="#B9EBE0" d="M109.947 3.903c0 2.06-24.47 3.731-54.655 3.731-30.185 0-54.654-1.67-54.654-3.73S25.108.171 55.292.171c30.186 0 54.655 1.672 54.655 3.731" mask="url(#d)"/>
        </g>
        <path fill="#FFC1AC" d="M278.85 503.835s1.47 2.99 2.21 3.937c.74.943 3.952-1.197 3.976-1.971.02-.774-2.854-5.479-2.854-5.479"/>
        <path fill="#353A63" d="M286.458 506.095c.695 1.04 1.836 3.102 1.836 3.102l-2.837 2.731-.742-.335s-.468 1.348-1.328 2.214c-.638.644-2.126 1.714-2.933 2.113-2.827 1.388-5.192 1.6-5.515 1.242-1.35-1.496 2.387-3.377 3.087-3.868 2.012-1.407 2.563-3.803 2.352-5.16-.153-.985-.43-1.067.079-1.218 0 0 .428-.183.986.104.857.437 1.9.4 2.596-.29.4-.397.737-.886.833-1.46 0 0 .892-.214 1.586.825"/>
        <path fill="#FFC1AC" d="M224.807 509.793s-.723 1.769-.633 2.933c.09 1.165 3.973 1.253 4.426.65.451-.606.676-5.956.676-5.956"/>
        <path fill="#353A63" d="M229.626 514.402c0 1.214-.354 3.192-.354 3.192h-4.474l-.22-.714s-1.451.714-2.593.714h-3.776c-2.766 0-4.335-.335-4.405-.8-.292-1.944 3.01-1.856 3.87-1.856 2.47 0 5.144-1.104 5.728-2.302.422-.87.235-1.09.746-.926 0 0 .46.093.767.632.471.826 1.364 1.379 2.334 1.216.554-.094 1.11-.296 1.512-.697 0 0 .865.327.865 1.541"/>
        <path fill="#049E8B" d="M247.61 428.779c-.025.162-3.652-3.982-3.692-3.807-1.441 7.25-8.15 31.497-10.378 37.858v.014c-.328.888-2.05 2.806-3.478 3.17-3.276.85-8.505-.266-8.925-6.516-.051-.687.105-1.44.027-2.252-.933-9.625 8.299-52.056 8.533-54.761.224-2.704 5.561-.753 7.056-1.254 7.457-2.466 12.811 17.405 10.857 27.548"/>
        <path fill="#049E8B" d="M233.969 466.265c-1.515-4.516.785-9.807.785-9.807s-12.873-9.868-13.53-3.845c-.064.476-.542 4.558-.541 6.859.005 8.237 2.876 34.32 2.665 50.249v1.038s2.15.426 5.925.389c.17 0 .353 0 .537-.014 1.075-9.919 3.403-23.406 4.506-36.975.272-3.33-.097-7.149-.347-7.894M266.179 466.915c-2.532-3.32-5.205-4.807-5.995-7.337-1.839-5.882-1.34-29.738-1.517-36.361.523-1.355 5.398-14.897-4.494-24.875 0 0-8.896 4.03-16.019 4.517-5.608.383-8.456-.205-8.456-.205s5.297 8.435 5.606 12.175c.525 6.352 11.775 44.718 12.634 46.823 1.953 4.786 4.112 6.672 4.827 7.654 4.986 6.85 16.658 21.258 25.51 35.055l.597.893s1.777-.644 5.087-3.042c-4.767-9.188-9.756-24.77-17.78-35.297"/>
        <path fill="#00C6AD" d="M222.528 351.279c1.808-2.066 9.562-5.261 17.23-5.02 5.284.166 22.076 1.89 23.684 5.414.822 1.801.743 18.897-.461 25.257-.904 4.782-3.637 17.072-3.637 19.93 0 2.86 1.54 4.086.822 4.915-1.611 1.861-13.644 2.693-18.812 2.693-4.6 0-12.43-1.223-12.828-2.693-.59-2.18.898-2.099 1.1-4.384.201-2.287 1.285-17.367-.063-19.559-2.138-3.478-5.385-13.337-5.55-15.958-.164-2.622-3.293-8.528-1.485-10.595"/>
        <path fill="#FFC1AC" d="M235.248 339.767s-.051 6.362-.308 6.618c-.257.258-1.518.85-1.518.85s.899 5.529 2.288 5.119c1.39-.411 10.565-5.03 10.565-5.03s-1.301-.528-1.301-1.041c0-.514 1.235-10.518 1.235-10.518"/>
        <path fill="#353A63" d="M237.727 318.853c-1.111-.837-2.707-.868-3.959-.263-1.252.605-2.175 1.767-2.702 3.051-.51 1.24-.664 2.717-.005 3.884-.922.302-1.497 1.302-1.497 2.269-.003 1.052.621 2.07 1.18 2.92.534.818 1.69 1.31 2.643 1.098.683-.152 1.264-.617 1.684-1.175.42-.559.695-1.21.95-1.86 1.177-3.016 1.978-6.168 2.566-9.35"/>
        <path fill="#FFC1AC" d="M241.62 316.66c-1.336.364-4.861-.364-5.834 1.09-.971 1.456-1.824 4.97-2.188 5.939-.724 1.93-1.2 3.993-1.726 5.982-.688 2.593-2.454 7.477.09 9.645.732.624 1.69.696 2.597.859 1.204.218 2.403.463 3.607.68 1.867.333 3.936.724 5.789.122 2.478-.802 3.836-4.197 4.472-6.504l3.646-13.209-10.452-4.604z"/>
        <path fill="#FFC1AC" d="M247.092 335.792s-.075.611.352 1.036c.375.372 1.032.236 1.468.036 1.25-.568 1.997-1.931 2.09-3.26.11-1.567-.895-3.006-2.256-2.444-.796.329-1.203 1.319-1.095 2.171"/>
        <path fill="#353A63" d="M250.442 328.563c-1.016 2.473-1.558 4.293-2.754 4.003-1.196-.29.486-4.957 1.52-6.831-1.504-.005-3.36-.237-3.901-1.635-.123-.315-.22-.722-.55-.796-.27-.057-.511.161-.745.311-1.055.683-2.496.016-3.337-.917-.194-.213-.418-.462-.705-.442-.178.012-.327.126-.471.229-1.736 1.227-6.345 1.167-6.33-.993-1.517.77-2.501-1.105-2.41-2.387.09-1.281 1.054-3.423 3.144-3.37-.102-1.575 1.138-2.563 2.394-3.524 1.258-.96 2.86-1.389 4.443-1.46 2.5-.114 5.343.914 6.195 3.258.062.17.123.357.279.451.172.101.391.045.584-.006 1.897-.506 4.082-.21 5.544 1.096 1.463 1.308 1.955 3.705.828 5.31 1.464.344 2.25 2.08 2.02 3.561-.23 1.483-1.204 2.736-2.218 3.845 1.586.504 2.22 2.668 1.415 4.123-.803 1.454-2.868 2.243-4.516 2.002.38-1.498.01-3.085-1.445-3.355l1.016-2.473zM235.367 353.873s-.505 23.412-1.461 37.655l3.453 4.75 2.374-5.947s1.002-17.178-2.247-36.295l-2.119-.163zM234.572 351.817l.08.322c.155.609.396 1.193.715 1.734l2.12.163s1.44-.753 1.632-1.561c.19-.809-2.366-2.135-2.366-2.135l-.31.122c-.717.28-1.35.736-1.846 1.323l-.025.032z"/>
        <path fill="#EAEAEA" d="M245.208 344.071s1.828 1.302 2.888 2.907c-1.088 2.486-4.33 6.712-7.042 8.723-1.268-3.39-4.3-5.36-4.3-5.36s7.695-1.588 8.454-6.27M236.753 350.34s-2.645 1.045-4.214 3.993c0 0-.506-3.987.572-7.411 0 0 1.426-2.387 2.026-2.432-.248 2.82 1.616 5.85 1.616 5.85"/>
        <path fill="#029381" d="M233.969 466.265c-.359-1.07-.498-2.182-.51-3.257.025-.054.062-.118.08-.165v-.012c1.499-4.279 5.023-16.645 7.61-26.492l-4.012-14.258s-2.433 29.02-3.232 31.104c-.798 2.084-3.28 8.786-3.039 10.229.243 1.445 1.81 4.093 1.57 6.38-.24 2.28-.206 22.786-.206 22.895.795-5.927 1.572-12.218 2.086-18.53.272-3.33-.097-7.149-.347-7.894"/>
        <path fill="#FFBE9D" d="M200.606 391.126c.188-.782-.157-1.73-.695-2.327-.538-.597-1.277-.98-2.032-1.259-.2-.074-.47-.122-.588.054-.084.127-.035.299.042.428.287.486.889.71 1.198 1.184.115.177.185.38.277.572a2.507 2.507 0 0 0 1.798 1.348"/>
        <path fill="#00BBA4" d="M227.874 374.077s-3.052-7.528-3.602-10.634c-1.457 7.386-.975 20.316-2.204 21.42-1.228 1.103-13.513 8.083-13.513 8.083 5.801-1.817 12.89-4.421 14.874-6.814 1.12-1.352 2.794-6.345 4.445-12.054v-.001z"/>
        <path fill="#DFA490" d="M235.243 340.302s5.19 1.128 6.11.98c.92-.149-1.996 1.577-2.54 1.64-.546.064-3.57-.352-3.57-.352v-2.268z"/>
        <path fill="#00BBA4" d="M263.442 351.673a1.975 1.975 0 0 0-.292-.437l-11.077 10.8c-2.637 7.004-7.9 25.436-7.9 25.436s-4.984 2.333-8.33 4.064c-.849.439-3.242 2.044-6.077 4.005-.058.84-.11 1.504-.142 1.849-.201 2.285-.516 2.272.074 4.453 0 1.447-.558 3.618-.935 5.767 8.323-2.12 25.497-7.488 26.148-7.84.975-.529 6.032-20.805 8.96-33.118.452-7.5.173-13.662-.429-14.979"/>
        <path fill="#C5C5C5" d="M159.714 326.037l19.973 10.607 65.046 92.618.6.856 6.054 8.857-15.904 11.096-6.458-9.433-1.301-1.844-63.941-91.055z"/>
        <path fill="#C5C5C5" d="M247.971 434.113l3.417 4.863-15.906 11.095-3.417-4.862z"/>
        <path fill="#FFE7C5" d="M244.558 429.248l3.413 4.865-15.906 11.096-3.411-4.865zM163.783 347.74l15.904-11.096-19.973-10.607z"/>
        <path fill="#FFB127" d="M161.17 333.803l5.451-4.097-6.906-3.669z"/>
        <path fill="#C5C5C5" d="M161.17 333.803l5.451-4.097-6.906-3.669z"/>
        <path fill="#DBD8D8" d="M159.714 326.037l16.708 12.884 70.555 103.131 4.41-3.077-71.7-102.331z"/>
        <path fill="#FFC1AC" d="M219.613 404.2s-2.38.74-3.61 1.096c-.802.231-4.61-.175-6.85.336-1.08.246-2.205.626-2.903 1.484-.7.859-.745 2.321.17 2.947.26.177.612.33.643.643.016.158-.062.31-.11.462-.147.468.02 1.018.405 1.325.384.308.96.352 1.386.107.007 1.017.91 1.945 1.93 1.985-.04-.56.14-1.174.604-1.492.448-.304 1.035-.268 1.575-.323a4.24 4.24 0 0 0 2.539-1.205c.482-.479.84-1.07 1.28-1.589a6.43 6.43 0 0 1 3.533-2.11"/>
        <path fill="#00C6AD" d="M252.014 360.857c-1.025 2.922-6.461 28.663-6.461 28.663s-5.32 1.332-8.665 3.064c-2.592 1.34-20.668 12.533-20.668 12.533l1.799 4.22s32.174-11.367 33.585-12.13c1.409-.764 14.329-33.266 14.329-39.066-.001-3.414-2.774-6.914-2.774-6.914"/>
        <path fill="#FFC1AC" d="M197.196 395.362c-1.046.098-2.095-.72-2.251-1.756-.032-.208-.034-.427-.14-.608-.184-.32-.599-.395-.949-.508-1.344-.442-2.163-1.836-2.445-3.217-.152-.735-.184-1.513.065-2.22.247-.709.81-1.333 1.541-1.516.143-.035.3-.054.436.003.137.057.234.18.321.3.401.563.695 1.203.863 1.874.122.487.205 1.04.601 1.348.268.208.624.26.923.418.603.318.889 1.012 1.095 1.66.313.986-.217 3.199-.06 4.222"/>
        <path fill="#353A63" d="M297.129 327.688h30.602c.682 0 1.28.456 1.461 1.112l4.809 17.524 9.305 4.871h-33.745l-9.305-4.871-4.589-16.726a1.512 1.512 0 0 1 1.462-1.91"/>
        <path fill="#353A63" d="M300.717 345.961h33.089l-4.714-17.182a1.486 1.486 0 0 0-1.435-1.09H297.65c-.98 0-1.692.929-1.434 1.873l4.5 16.4z"/>
        <path fill="#B9EBE0" d="M296.986 329.352l.584 2.1v.012l3.45 12.557a1.54 1.54 0 0 0 1.495 1.137h28.203a1.554 1.554 0 0 0 1.494-1.963l-.19-.678-.639-2.33-.665-2.437-1.618-5.906-.61-2.208a1.555 1.555 0 0 0-1.496-1.152h-29.343a.668.668 0 0 0-.543.272.672.672 0 0 0-.122.596"/>
        <path fill="#353A63" d="M309.841 350.738h33.089l-9.124-4.777h-33.089z"/>
        <path fill="#B9EBE0" d="M380.542 471.813c0 1.26-11.645 2.284-26.01 2.284-14.364 0-26.008-1.023-26.008-2.284 0-1.263 11.644-2.286 26.007-2.286 14.366 0 26.011 1.023 26.011 2.286"/>
        <path fill="#FFC1AC" d="M362.74 461.843s.106 4.358.189 5.469c.083 1.112 3.63 1.193 4.044.617.412-.576.619-5.677.619-5.677"/>
        <path fill="#353A63" d="M367.91 468.909c0 1.157-.324 3.044-.324 3.044h-4.088l-.201-.68s-1.325.68-2.369.68h-3.45c-2.528 0-3.962-.32-4.026-.763-.267-1.853 2.752-1.769 3.536-1.769 2.258 0 4.701-1.053 5.235-2.196.385-.83.215-1.038.68-.882 0 0 .423.09.702.603.43.786 1.247 1.314 2.133 1.16.507-.09 1.015-.284 1.382-.665 0 0 .79.31.79 1.468"/>
        <path fill="#FFC1AC" d="M348.388 460.669s.756 2.985 1.246 3.986c.488 1.002 3.815-.233 3.984-.92.17-.687-1.534-5.502-1.534-5.502"/>
        <path fill="#353A63" d="M354.854 464.299c.43 1.077 1.068 3.16 1.068 3.16l-3.1 1.844-.608-.458s-.684 1.106-1.63 1.7c-.704.438-2.26 1.083-3.07 1.266-2.831.645-5.02.334-5.243-.055-.936-1.622 2.818-2.513 3.547-2.805 2.097-.833 3.056-2.857 3.127-4.116.05-.912-.185-1.044.305-1.072 0 0 .425-.072.876.302.691.572 1.645.762 2.411.29.438-.27.838-.637 1.037-1.128 0 0 .85-.004 1.28 1.072"/>
        <path fill="#C5C5C5" d="M370.223 361.675c1.47-1.082 3.072-2.296 4.593-3.562 3.468-2.904 6.566-6.06 6.95-8.354.847-5.147.186-20.443-.225-27.662a30.87 30.87 0 0 0-.066-1.228c-.411-6.822-4.09-9.844-5.93-10.953-.94 8.87-3.058 28.888-3.23 29.918-.225 1.32-2.092 21.841-2.092 21.841"/>
        <path fill="#B2AFAF" d="M370.22 361.675c1.469-1.082 3.07-2.296 4.593-3.562.13-5.64 1.814-13.517 4.185-23.375 2.812-12.427 1.043-14.713 1.043-14.713l-5.653.858c-.938 8.776-1.958 18.252-2.077 18.95-.226 1.321-2.091 21.842-2.091 21.842"/>
        <path fill="#049E8B" d="M356.635 408.363c.323 6.301.864 12.808 1.755 17.336.753 3.845 12.877 4.55 11.319 1.588-2.25-4.304 1.673-17.795 3.601-40.8.278-3.481 1.849-3.883 2.89-11.044 1.028-7.174-2.925-13.392-2.925-13.392l-16.827-1.558-.217 20.895-.064 7.065s-.038 9.692.468 19.91"/>
        <path fill="#049E8B" d="M368.225 424.6s3.29 4.02 2.832 11.394c-.46 7.374-3.033 29.38-3.033 29.38s-3.86.568-5.85-.164c0 0-4.165-40.814-4.18-45.45-.018-4.635 10.23 4.84 10.23 4.84"/>
        <path fill="#029381" d="M356.635 408.363c1.063-3.4 3.158-9.89 4.888-13.56 2.415-5.13 4.77-7.367 4.77-7.367 8.536-8.93 2.666-20.478 2.666-20.478s-6.95 5.74-7.437 6.336c-.46.555-3.238 5.43-5.29 8.094l-.065 7.065s-.038 9.692.468 19.91"/>
        <path fill="#049E8B" d="M336.687 405.613s-3.814 12.518-3.209 16.44c.605 3.924 14.556 40.629 14.556 40.629s2.57.036 5.597-1.382c0 0-.302-16.158-3.037-26.269-2.736-10.11-5.916-16.297-8.64-17.202-2.725-.907-4.51-10.112-5.267-12.216"/>
        <path fill="#029381" d="M349.022 413.047s-4.14 6.57-1.593 12.466c2.546 5.897-4.264 4.917-4.264 4.917s-3.405-9.886-2.65-11.168c.758-1.283 3.558-5.583 4.466-5.81.908-.227 4.041-.405 4.041-.405"/>
        <path fill="#049E8B" d="M344.848 360.823s-8.851 40.857-10.008 51.865c-.49 4.667 4.43 12.38 8.971 8.159 5.421-5.04 14.197-28.105 16.921-32.18 2.725-4.074 12.92-7.809 5.957-28.483"/>
        <path fill="#FFC1AC" d="M366.702 305.946s-1.211-4.089-.683-7.107c.531-3.019 2.346-8.45 1.666-12.525-.681-4.074-5.827-7.47-11.276-6.942-5.45.53-7.038 5.734-7.946 8.753-.909 3.017-.757 7.62-.53 10.111.227 2.49 1.588 4.452 2.497 4.98.908.526 4.324-.17 4.925.48.6.65 1.054 4.5 1.054 4.5"/>
        <path fill="#FFF" d="M369.275 309.176s-.304-2.385-1.211-3.23c-.908-.844-6.963-.844-8.78-.617-1.816.225-6.294 2.307-6.886 2.748-.592.44.576 2.731.576 2.731l16.3-1.632z"/>
        <path fill="#353A63" d="M366.474 300.801s-7.569.64-9.006 0c-1.437-.641-3.518-2.038-3.709-4.602-.188-2.566.341-3.358-.642-4.792-.985-1.434-1.854-.944-2.006.416-.152 1.357-.21 3.81-.566 3.99-.484.243-1.057-1.484-.871-4.104.16-2.273.415-4.038 1.097-5.546.681-1.509 1.05-1.425 1.665-1.698-.663-.32-1.379-.358-2.688-2.395-1.514-2.359-.68-6.033 3.331-6.018 7.007.027 14.454 1.397 14.606 6.565 0 0 2.46-.378 2.535 4.337.076 4.718-2.951 10.414-3.178 11.885-.227 1.472.189 1.623-.568 1.962"/>
        <path fill="#C5C5C5" d="M345.44 356.238c-.278 2.362-2.356 6.019-.94 6.532.569.199 2.886.067 5.719-.17h.08c.052 0 .092-.014.131-.014 2.515-.211 5.388-.488 7.797-.673 9.622-.41 14.534 1.505 15.5.963.464-.277.477-1.108.331-1.966-.331-2.11-.436-4.236-.159-6.361.239-1.782.57-3.906 1.033-6.334 1.588-8.408 4.698-21.248 5.162-28.969.742-12.102-12.257-10.953-12.257-10.953-16.547-1.03-24.315 3.721-25.217 10.81a28.68 28.68 0 0 0-.146 1.608c-.423 7.311 1.815 19.11 2.874 27.926.291 2.428.237 5.239.092 7.601"/>
        <path fill="#B2AFAF" d="M345.44 356.238c-.278 2.362-2.356 6.019-.94 6.532.569.199 2.886.067 5.719-.17-2.556.184-3.031-1.769-2.461-3.076.567-1.32 1.745-4.288 1.64-7.813-.119-3.51-1.442-11.428-2.224-18.91-.741-6.956-.106-12.393-.013-13.12-.397.793-1.535 1.902-4.74 2.64-.065 7.351 1.947 18.12 2.927 26.316.291 2.428.237 5.239.092 7.601"/>
        <path fill="#FFC1AC" d="M303.228 351.724c-.38-.205.022-.636.404-.635.051 0 .164.017.313.044-.674-.221-1.22-.408-1.345-.475-.361-.194-.027-.61.335-.65a6.57 6.57 0 0 1-.55-.217c-.465-.24-.053-.673.4-.641.1.007.369.068.717.157a3.594 3.594 0 0 1-.369-.147c-.38-.205-.09-.619.291-.616.125 0 .33.056.827.175.424.103.9.164 1.322.273.591.154 1.228.214 1.24.215 1.466-.47 2.182-1.243 2.182-1.243l-1.445-.8s-.084-1.27 3.943.255c.598.226 1.11 1.047 1.486 1.145.374.098 1.484.086 1.484.086l-.004 3.515s-1.965-.343-2.548-.113c-.576.248-2.921.99-3.322 1.024-.166.017-.865-.058-1.68-.168l-1.208-.25-1.134-.358s-1.214-.509-1.339-.576"/>
        <path fill="#C5C5C5" d="M313.569 352.41s6.3 1.426 11.422 2.377c3.961.712 8.162 1.297 12.301.997.028-.002.065.012.095.01 2.562-.095 5.958-.846 6.75-1.989.793-1.143 2.333-5.664 2.333-5.664 1.298-2.665 3.255-9.9 4.906-16.061l.075-.283c.767-2.87 1.474-5.492 2.001-7.275.262-.835.23-1.72-.061-2.497a3.485 3.485 0 0 0-1.346-1.759c-.007-.017-.007-.017-.02-.022-1.731-1.176-1.2-2.851-2.984-1.702-.09.047-1.162-.274-1.241-.221-1.153-2.808-.377-6.586-.377-6.586s-5 2.187-6.822 12.462c-.404 2.28-2.911 18.36-3.089 20.33-.007.155-.008.296-.022.434 0 0-.067.23-.132.59-.015.107-.017.248-.032.385a19.493 19.493 0 0 0-4.88.464c-5.702 1.295-18.474 1.947-18.474 1.947l-.335 3.177-.004.042.008.016-.072.828z"/>
        <g fill="#EFEFFF">
            <path d="M321.085 328.484l9.633 9.266-1.617-5.906-3.492-3.36zM332.021 342.517l-14.59-14.033h1.78l12.173 11.703zM302.378 328.484l17.349 16.674h1.766l-17.335-16.674zM296.986 329.352l.584 2.1v.012l14.236 13.694h4.89l-17.334-16.674h-1.711a.668.668 0 0 0-.543.272.672.672 0 0 0-.122.596"/>
        </g>
        <path fill="#C6EFE1" d="M376.155 275.45a9.588 9.588 0 0 1-.13-6.377c1.666-5.068 7.138-7.827 12.22-6.166 5.083 1.662 7.853 7.118 6.186 12.186-1.668 5.067-7.14 7.828-12.222 6.167a9.641 9.641 0 0 1-4.594-3.208l-4.186.73 2.726-3.332z"/>
        <path fill="#FFF" d="M389.23 269.325a2.367 2.367 0 0 0-3.34.134l-.585.631-.638-.589a2.369 2.369 0 0 0-3.343.125 2.353 2.353 0 0 0 .127 3.332l2.367 2.189.014.016a2.368 2.368 0 0 0 3.342-.135l2.192-2.372a2.353 2.353 0 0 0-.136-3.331"/>
        <path fill="#B9EBE0" d="M113.038 469.637c0 1.607-19.104 2.912-42.668 2.912-23.565 0-42.668-1.305-42.668-2.912 0-1.609 19.103-2.914 42.668-2.914 23.564 0 42.668 1.305 42.668 2.914"/>
        <path fill="#C6EFE1" d="M37.048 263.41a9.585 9.585 0 0 0 2.117-6.017c0-5.333-4.335-9.657-9.685-9.657-5.35 0-9.686 4.324-9.686 9.657 0 5.334 4.336 9.657 9.686 9.657 1.986 0 3.83-.598 5.366-1.62l3.75 1.996-1.548-4.015z"/>
        <path fill="#FFF" d="M25.395 254.756a2.368 2.368 0 0 1 3.345.035l.603.614.619-.61a2.37 2.37 0 0 1 3.345.025c.916.929.905 2.421-.027 3.336l-2.3 2.259a2.36 2.36 0 0 1-1.305.661 2.37 2.37 0 0 1-2.052-.68l-2.263-2.306a2.353 2.353 0 0 1 .035-3.334"/>
        <path fill="#353A63" d="M45.241 315.32l-3.435 13.312s12.88 9.829 17.89 5.7c5.012-4.131-.136-16.882-.136-16.882l-1.786-1.78-12.533-.35zM69.161 271.267s3.644 4.304 2.47 13.07c-.42 2.567 2.965 6.162 5.218 7.979 2.252 1.817 4.328 6.127 2.535 10.17-1.792 4.04-2.527 4.436-1.101 8.12 2.728 7.041 1.1 20.019-9.036 18.975-10.136-1.043-10.987-35.754-10.987-35.754l.673-11.557 10.228-11.003z"/>
        <path fill="#FFC1AC" d="M65.766 306.892s3.689.543 8.347 1.067c7.007.802 16.21 1.555 18.544.401 3.875-1.943 16.613-12.84 16.613-12.84l1.999-1.29c.341-.2.707-.322 1.1-.367.424-.039 1.135-.13 2.086-.374.481-.132.939-.327 1.336-.576a.794.794 0 0 0 .22-.13c.033-.027.06-.036.06-.036.886-.57 1.566-1.275 2.138-1.74.881-.715-.433-1.164-1.921-.435-1.48.71-.537.57-1.48.536-.929-.04.06-1.428.92-2.426.795-.93.686-.953 1.47-2.04.778-1.072 1.514-1.912 1.937-2.604.29-.489.415-1.11-.144-.953-.58.178-3.05 2.581-3.67 2.991-.625.397-1.527-.349-3.26.606-1.733.954-2.413 3.75-2.959 4.64-.545.894-18.172 11.186-20.36 11.086-2.19-.113-18.746-4.048-23.874-3.764-2.772.154.898 8.248.898 8.248"/>
        <path fill="#DFA490" d="M74.113 307.959c7.006.802 16.209 1.555 18.544.401 3.875-1.943 16.614-12.84 16.614-12.84l1.998-1.29c.34-.2.708-.322 1.1-.367.424-.039 1.136-.13 2.086-.374a5.03 5.03 0 0 0 1.336-.576c-1.174.58-3.618.101-4.818.734-1.292.663-10.252 7.937-14.31 10.508-4.05 2.553-5.578 3.423-9.22 3.416-3.635.006-12.283-1.527-12.283-1.527l-1.047 1.915z"/>
        <path fill="#FFC1AC" d="M70.848 456.398s.687 3.605.55 6.457c-.42 1.97-.07 2.563-.07 2.563l7.552-.43s-3.285-1.724-2.833-9.465c.452-7.74-5.2.875-5.2.875"/>
        <path fill="#353A63" d="M71.286 463.453s3.242 1.301 6.504.48c3.757 1.86 6.419 2.624 9.868 3.158 3.45.534 2.756 3.356-3.148 2.797-5.905-.559-10.04-.403-11.358-.309-1.319.095-3.427.21-3.489-.71-.061-.92.563-5.75 1.623-5.416"/>
        <path fill="#FFC1AC" d="M47.722 455.751s.688 3.604.55 6.456c-.42 1.971-.069 2.564-.069 2.564l7.551-.43s-3.284-1.724-2.833-9.466c.453-7.74-5.199.876-5.199.876"/>
        <path fill="#353A63" d="M48.16 462.805s3.242 1.303 6.505.48c3.756 1.86 6.418 2.625 9.867 3.158 3.45.534 2.756 3.356-3.148 2.798-5.905-.559-10.04-.404-11.358-.31-1.319.095-3.426.211-3.489-.71-.06-.918.563-5.749 1.624-5.416"/>
        <path fill="#049E8B" d="M76.811 348.422s3.424 50.774 3.526 57.374c.101 6.6.038 8.893-.364 12.899-.4 4.003 1.128 37.884 1.128 37.884s-11.366 2.621-14.167-.072c0 0 1.507-36.85.245-43.197-1.258-6.345-5.98-38.457-5.98-38.457l7.4-32.495 8.212 6.064z"/>
        <path fill="#00BBA4" d="M50.62 408.693c1.416-9.426.39-47.823.703-55.94.313-8.117 23.12-3.346 23.12-3.346s-8.527 47.38-9.582 54.234c-1.057 6.855-2.263 8.83-2.88 15.41-.618 6.582-4.652 37.449-4.652 37.449s-12.675 1.759-13.562-.648c-1.65-12.236 6.853-47.16 6.853-47.16"/>
        <path fill="#C5C5C5" d="M72.048 315.204c-.262.628.287 5.01 1.123 10.548.03.234.072.466.103.7 1.03 6.823 2.46 15.208 3.312 20.539.043.246.074.466.115.688.26 1.653.469 2.966.568 3.76 0 0-15.156-3.24-27.391 1.87 0 0 .972-7.599 3.644-14.686.08-.218.171-.423.25-.628.515-1.314 1.09-2.616 1.735-3.817.027-.073.065-.134.104-.205.079-.17.156-.326.21-.506a.437.437 0 0 0 .091-.182c.767-2.04.438-4.685-.485-7.517-.857-2.622-2.235-5.407-3.728-7.998a84.154 84.154 0 0 0-2.704-4.345v-.013c-2.55-3.793-4.749-6.513-4.749-6.513s-1.5-4.984 1.512-9.341c0-.012.012-.012.025-.022a9.81 9.81 0 0 1 1.241-1.492c1.297-1.294 4.904-2.949 7.845-3.928.753-.247 1.469-.46 2.084-.601a8.19 8.19 0 0 1 1.28-.22c1.716-.135 3-.062 4.057.163 3.187.71 4.304 2.791 9.06 4.218l10.266 3.07s-1.382 8.659-.318 11.264l-7.177-.202s-1.364 3.696-2.073 5.396"/>
        <path fill="#B2AFAF" d="M55.91 333.284c1.897-5.068-2.912-13.836-6.916-19.854l.002-.014 4.425-4.646s-.08 7.64 1.236 10.63c1.304 2.964 3.387 9.066 1.254 13.884M71.988 302.657s2.995 4.83 2.13 7.153l7.183.2s-.463-1.121-.405-3.15c-1.107.279-5.44 1.342-8.908-4.203"/>
        <path fill="#353A63" d="M65.966 348.114l28.566-1.144a1.478 1.478 0 0 0 1.39-1.178l3.953-19.273a1.477 1.477 0 0 0-1.51-1.77l-28.564 1.145a1.48 1.48 0 0 0-1.391 1.18l-3.952 19.27a1.476 1.476 0 0 0 1.508 1.77"/>
        <path fill="#00BBA4" d="M65.896 347.42l28.44-1.14a.884.884 0 0 0 .833-.705l3.91-19.06a.884.884 0 0 0-.904-1.06l-27.79 1.113a1.386 1.386 0 0 0-1.303 1.105L65.2 346.604a.68.68 0 0 0 .696.816"/>
        <path fill="#FFC1AC" d="M63.648 337.728l-.208 1.158-.599-.085-.343 1.683s-.464-.087-1.333-.244c0-.012 0-.012-.012-.012s-.025 0-.037-.012c-1.48-.256-4.098-.782-7.596-1.6a281.378 281.378 0 0 1-7.829-1.9c-3.877-.988-6.397-2.964-6.458-3.5-.11-.867.048-2.575.342-4.647.147-1.061.33-2.22.538-3.39.71-4.257 1.664-8.83 2.019-10.465.024-.17.06-.317.085-.414l.037-.22 1.125.44 6.129 2.352-.404 1.147-3.804 10.903c-.025.05-.025.11-.025.159a.702.702 0 0 0 .477.744c3.01 1.085 6.618 2.78 9.75 4.354a207.59 207.59 0 0 1 6.336 3.293c.098.06.183.11.27.146.317.183.66.207.94.195.343-.012.6-.085.6-.085"/>
        <path fill="#DFA490" d="M61.113 340.215c-1.474-.261-4.089-.787-7.591-1.592a298.203 298.203 0 0 1-7.826-1.902c-3.875-1-6.403-2.974-6.461-3.5-.11-.869.047-2.585.338-4.65.677-4.91 2.107-11.776 2.557-13.863.03-.169.057-.315.084-.412l1.533.788s-.056.266-.167.74c-.492 2.242-1.982 9.07-2.67 13.052-.22 1.323-.358 2.332-.346 2.76.079 1.99 1.173 2.242 2.527 2.815.774.34 6.024 2.061 10.682 3.545 3.541 1.136 6.743 2.116 7.34 2.219"/>
        <path fill="#FFC1AC" d="M61.837 337.47s.783.17 1.047.158c.413-.02.549-.099.549-.099s1.654-1.118 3.096-1.284l-.238 1.17s1.936 1.095 2.546 1.485c0 0 .635.29.89.363.255.073 2.524-.131 3.058-.123.534.01.827.32.812.655 0 0-.036.17-.327.224-.051.01-.204.03-.392.055.27-.017.499-.03.604-.028.533.009.826.32.81.655 0 0-.035.17-.326.223-.084.016-.485.067-1.004.13.417.068.653.331.641.626 0 0-.035.17-.328.224-.087.016-.52.07-1.074.137.162.124.251.293.244.475 0 0-.036.168-.328.222-.293.054-4.257.693-4.662.62-.744-.134-3.564-2.18-3.714-2.289-.534-.308-1.243-.589-1.243-.589l-.661-3.01z"/>
        <path fill="#C5C5C5" d="M54.266 308.3c-1.59 5.488-2.3 8.365-2.569 9.476-.085.353-.122.524-.122.524s-1.003 0-2.471-.28c-1.541-.305-3.596-.927-5.529-2.196a7.343 7.343 0 0 1-.404-.281 12.872 12.872 0 0 1-1.04-.828 12.002 12.002 0 0 1-1.626-1.781s1.651-10.769 5.247-15.38c0-.011.013-.011.025-.023.648-.83 1.382-1.476 2.177-1.793.123-.049.245-.098.355-.122 1.871-.61 3.474.049 4.636 1.5 1.052 1.293 1.725 3.23 1.92 5.452a15.958 15.958 0 0 1-.599 5.732"/>
        <path fill="#FFC1AC" d="M66.269 288.627c-1.315.693-2.72.968-4.119.996.007.574.057 1.18.152 1.814.35.085.537.13.772.213.534.19.288 1.24.225 1.627-.294 1.797-1.956 2.54-3.618 2.069-1.65-.468-2.277-2.292-2.834-3.72-.233-.599-1.481-1.17-1.526-2.328-.025-.35-.037-.72-.048-1.114-.746-.301-1.18-.539-1.18-.539s-.16-1.87-.202-4.409a48.21 48.21 0 0 1-.004-2.27c.047-3.638.423-7.795 1.721-9.894 1.628-2.616 5.875-2.183 8.82-1.481 1.78.42 3.083.928 3.083.928s3.938 15.41-1.242 18.108"/>
        <path fill="#DFA490" d="M62.324 272.4s.51 2.894-1.76 4.72c-2.27 1.823-6.172 2.75-6.258 5.122-.05 1.407 1.074 2.732 1.074 2.732s-2.548-.096-2.669-.275c-.12-.18-1.36-5.572-1.36-5.572s5.174-5.99 5.824-6.309c.65-.32 5.149-.418 5.149-.418"/>
        <path fill="#353A63" d="M64.431 269.59c-2.948-.695-7.192-1.134-8.82 1.488-1.296 2.098-1.675 6.256-1.724 9.89-.342.55-.502 1.355 0 2.27.049 2.536.208 4.402.208 4.402s.428.244 1.174.549c.013.39.025.756.05 1.11.048 1.158.11 2.097.146 2.744-2.667.89-5.933 2.378-7.156 3.573-.11.024-.232.073-.355.122-.795.317-1.529.963-2.177 1.793-.012.012-.025.012-.025.024-3.596 4.61-5.247 15.379-5.247 15.379.49.67 1.052 1.256 1.627 1.78-.355 1.635-1.31 6.208-2.019 10.464a14.07 14.07 0 0 1-3.73-2.158c-4.123-3.305-5.028-9.928-1.909-14.282 2.349-3.317 2.214-5.488 1.957-6.268-3.156-9.83 1.187-16.94 6.325-20.001a7.034 7.034 0 0 0 3.425-6.11c-.025-2.744.452-6.135 2.52-8.452 2.984-3.366 6.336-4.22 9.308-3.854 2.508.317 5.407 2.037 6.765 4.33.232.39.037.793-.343 1.207"/>
        <path fill="#353A63" d="M57.652 290.531c-.01.371-.11.683-.263.959-.568.13-1.227.326-1.92.552-.039-.641-.102-1.586-.149-2.745a29.23 29.23 0 0 1-.048-1.113c-.746-.302-1.179-.538-1.179-.538s-.161-1.87-.202-4.409c.181.353.475.732.892 1.115 0 0 3.013 2.667 2.869 6.18M61.556 273.116c.129 3.845-3.864 5.598-6.986 7.195-.24.119-.494.347-.682.655.045-3.638-2.276-7.934-.977-10.033 1.628-2.617 8.573-2.043 11.516-1.343-.917.997-2.922 2.12-2.87 3.526z"/>
        <path fill="#353A63" d="M70.468 265.69c2.14 1.646 2.25 5.041.169 6.734-2.084 1.695-5.57 2.825-11.06.226-6.551-3.102-4.908-8.598-.654-8.425 8.207 2.477 9.008-.484 11.545 1.466M57.358 288.396s3.16 8.915-11.06 7.116c-11.914-1.506-9.89 15.112-9.89 15.112l4.492-10.01 5.499-7.318 2.993-3.252 7.966-1.648z"/>
    </g>
</svg>
